<svg xmlns="http://www.w3.org/2000/svg" xmlns:xlink="http://www.w3.org/1999/xlink" viewBox="0 0 500 500"><defs><clipPath id="freepik--clip-path--inject-20"><path d="M182.62,324.43h-96V97.35h96ZM292.3,97.35h-96V324.43h96Zm109.69,0H306V324.43h96Z" style="fill:none;stroke:#263238;stroke-miterlimit:10"></path></clipPath></defs><g id="freepik--background-simple--inject-20"><path d="M255.74,401.82a150.48,150.48,0,0,0,40.51-.91,132.91,132.91,0,0,0,35.24-11.14c57.67-26.51,100.77-91,95.18-155.8-3.28-35.86-24.46-65.25-61.9-80.4-26.77-10.93-73.27,6.37-98.7-9.48C239.53,127.53,239.73,95.44,184.46,82c-35.16-8.72-73.11,22.28-88.21,51.64-18,36.57-15.79,77-5.37,121.26C107,324.82,182.33,393.77,255.74,401.82Z" style="fill:#D97C42"></path><g style="opacity:0.8"><path d="M255.74,401.82a150.48,150.48,0,0,0,40.51-.91,132.91,132.91,0,0,0,35.24-11.14c57.67-26.51,100.77-91,95.18-155.8-3.28-35.86-24.46-65.25-61.9-80.4-26.77-10.93-73.27,6.37-98.7-9.48C239.53,127.53,239.73,95.44,184.46,82c-35.16-8.72-73.11,22.28-88.21,51.64-18,36.57-15.79,77-5.37,121.26C107,324.82,182.33,393.77,255.74,401.82Z" style="fill:#fff"></path></g></g><g id="freepik--Window--inject-20"><g style="clip-path:url(#freepik--clip-path--inject-20)"><path d="M297.14,140.61v1.46H298C297.72,141.59,297.45,141.1,297.14,140.61Z" style="fill:#fff"></path><g style="opacity:0.2"><path d="M212.56,141.94c-3.43-1.87-5-.31-6.23-1.87s3.42-5.61-5.92-9.65c0,0-.62-8.72-13.39-9s-9.34,8.71-12.76,10.89-4.36-1.24-7.79.94-1.87,6.54-4.67,7.16-6.54-2.8-10-.62-3.43,4.05-5,4.05-4.67-1.25-6.54,0-4,2.8-4,2.8h78.78S216,143.81,212.56,141.94Z" style="fill:#D97C42"></path></g><g style="opacity:0.2"><path d="M434.59,177.62c-3.43-1.87-5-.31-6.23-1.87s3.42-5.6-5.92-9.65c0,0-.62-8.72-13.39-9s-9.34,8.72-12.76,10.9-4.36-1.25-7.79.93-1.87,6.54-4.67,7.16-6.54-2.8-10-.62-3.43,4.05-5,4.05-4.67-1.25-6.54,0-4,2.8-4,2.8h78.78S438,179.49,434.59,177.62Z" style="fill:#D97C42"></path></g><g style="opacity:0.2"><path d="M229.88,177c-2.14-1.17-3.11-.2-3.89-1.17s2.14-3.5-3.69-6c0,0-.39-5.45-8.36-5.64s-5.83,5.44-8,6.8-2.72-.78-4.86.59-1.17,4.08-2.91,4.47-4.09-1.75-6.22-.39-2.14,2.52-3.11,2.52-2.92-.77-4.09,0-2.52,1.75-2.52,1.75h49.17S232,178.16,229.88,177Z" style="fill:#D97C42"></path></g><polyline points="36.86 332.51 36.86 249.24 86.31 249.24 86.31 149.37 119.61 149.37 119.61 171.29 138.26 171.29 138.26 235.84 183.54 235.84 183.54 200.52 204.85 200.52 204.85 220 220.53 220 227.56 220 228.12 227.32 246.52 227.32 246.52 198.09 261.17 198.09 261.17 106.75 297.13 106.75 297.13 142.06 323.77 142.06 323.77 97.58 353.07 97.58 353.07 206.61 383.71 206.61 383.71 246.8 405.1 246.8 405.1 334.3" style="opacity:0.1"></polyline><rect x="92.2" y="171" width="7.2" height="7.8" style="opacity:0.1"></rect><rect x="107.21" y="171" width="7.2" height="7.8" style="opacity:0.1"></rect><rect x="92.2" y="187.26" width="7.2" height="7.8" style="opacity:0.1"></rect><rect x="107.21" y="187.26" width="7.2" height="7.8" style="opacity:0.1"></rect><rect x="123.41" y="187.26" width="7.2" height="7.8" style="opacity:0.1"></rect><rect x="123.41" y="203.52" width="7.2" height="7.8" style="opacity:0.1"></rect><rect x="123.41" y="219.78" width="7.2" height="7.8" style="opacity:0.1"></rect><rect x="123.41" y="236.04" width="7.2" height="7.8" style="opacity:0.1"></rect><rect x="123.41" y="252.3" width="7.2" height="7.8" style="opacity:0.1"></rect><rect x="123.41" y="268.56" width="7.2" height="7.8" style="opacity:0.1"></rect><rect x="92.2" y="203.52" width="7.2" height="7.8" style="opacity:0.1"></rect><rect x="107.21" y="203.52" width="7.2" height="7.8" style="opacity:0.1"></rect><rect x="92.2" y="219.78" width="7.2" height="7.8" style="opacity:0.1"></rect><rect x="107.21" y="219.78" width="7.2" height="7.8" style="opacity:0.1"></rect><rect x="92.2" y="236.04" width="7.2" height="7.8" style="opacity:0.1"></rect><rect x="107.21" y="236.04" width="7.2" height="7.8" style="opacity:0.1"></rect><rect x="92.2" y="252.3" width="7.2" height="7.8" style="opacity:0.1"></rect><rect x="59.19" y="261.4" width="7.2" height="7.8" style="opacity:0.1"></rect><rect x="163.02" y="243.84" width="7.2" height="7.8" style="opacity:0.1"></rect><rect x="177.43" y="243.84" width="7.2" height="7.8" style="opacity:0.1"></rect><rect x="328.56" y="117.67" width="7.2" height="7.8" style="opacity:0.1"></rect><rect x="337.57" y="117.67" width="7.2" height="7.8" style="opacity:0.1"></rect><rect x="328.56" y="133.93" width="7.2" height="7.8" style="opacity:0.1"></rect><rect x="337.57" y="133.93" width="7.2" height="7.8" style="opacity:0.1"></rect><rect x="328.56" y="150.19" width="7.2" height="7.8" style="opacity:0.1"></rect><rect x="337.57" y="150.19" width="7.2" height="7.8" style="opacity:0.1"></rect><rect x="328.56" y="166.45" width="7.2" height="7.8" style="opacity:0.1"></rect><rect x="337.57" y="166.45" width="7.2" height="7.8" style="opacity:0.1"></rect><rect x="328.56" y="182.71" width="7.2" height="7.8" style="opacity:0.1"></rect><rect x="337.57" y="182.71" width="7.2" height="7.8" style="opacity:0.1"></rect><rect x="267.35" y="182.71" width="7.2" height="7.8" style="opacity:0.1"></rect><rect x="282.95" y="182.71" width="7.2" height="7.8" style="opacity:0.1"></rect><rect x="298.56" y="182.71" width="7.2" height="7.8" style="opacity:0.1"></rect><rect x="267.35" y="217.83" width="7.2" height="7.8" style="opacity:0.1"></rect><rect x="282.95" y="217.83" width="7.2" height="7.8" style="opacity:0.1"></rect><rect x="298.56" y="217.83" width="7.2" height="7.8" style="opacity:0.1"></rect><rect x="267.35" y="252.95" width="7.2" height="7.8" style="opacity:0.1"></rect><rect x="282.95" y="252.95" width="7.2" height="7.8" style="opacity:0.1"></rect><rect x="298.56" y="252.95" width="7.2" height="7.8" style="opacity:0.1"></rect><rect x="328.56" y="198.97" width="7.2" height="7.8" style="opacity:0.1"></rect><rect x="337.57" y="198.97" width="7.2" height="7.8" style="opacity:0.1"></rect><rect x="328.56" y="215.23" width="7.2" height="7.8" style="opacity:0.1"></rect><rect x="337.57" y="215.23" width="7.2" height="7.8" style="opacity:0.1"></rect><rect x="328.56" y="231.49" width="7.2" height="7.8" style="opacity:0.1"></rect><rect x="337.57" y="231.49" width="7.2" height="7.8" style="opacity:0.1"></rect><rect x="352.57" y="215.23" width="7.2" height="7.8" style="opacity:0.1"></rect><rect x="369.38" y="215.23" width="7.2" height="7.8" style="opacity:0.1"></rect><rect x="352.57" y="230.84" width="7.2" height="7.8" style="opacity:0.1"></rect><rect x="369.38" y="230.84" width="7.2" height="7.8" style="opacity:0.1"></rect><rect x="352.57" y="246.44" width="7.2" height="7.8" style="opacity:0.1"></rect><rect x="369.38" y="246.44" width="7.2" height="7.8" style="opacity:0.1"></rect><rect x="352.57" y="262.05" width="7.2" height="7.8" style="opacity:0.1"></rect><rect x="369.38" y="262.05" width="7.2" height="7.8" style="opacity:0.1"></rect><rect x="328.56" y="247.74" width="7.2" height="7.8" style="opacity:0.1"></rect><rect x="337.57" y="247.74" width="7.2" height="7.8" style="opacity:0.1"></rect><rect x="328.56" y="264" width="7.2" height="7.8" style="opacity:0.1"></rect><rect x="337.57" y="264" width="7.2" height="7.8" style="opacity:0.1"></rect><rect x="107.21" y="252.3" width="7.2" height="7.8" style="opacity:0.1"></rect><rect x="92.2" y="268.56" width="7.2" height="7.8" style="opacity:0.1"></rect><rect x="107.21" y="268.56" width="7.2" height="7.8" style="opacity:0.1"></rect><rect x="92.2" y="284.82" width="7.2" height="7.8" style="opacity:0.1"></rect><rect x="107.21" y="284.82" width="7.2" height="7.8" style="opacity:0.1"></rect><rect x="92.2" y="301.07" width="7.2" height="7.8" style="opacity:0.1"></rect><rect x="107.21" y="301.07" width="7.2" height="7.8" style="opacity:0.1"></rect></g><path d="M182.62,324.43h-96V97.35h96ZM292.3,97.35h-96V324.43h96Zm109.69,0H306V324.43h96Z" style="fill:none;stroke:#263238;stroke-miterlimit:10"></path></g><g id="freepik--Lamps--inject-20"><path d="M385.09,142.17c-1.9-6.19-9.44-9.26-14.79-11.58-2.51-1.08-3.23-3-3.41-5.68,0-.29,0-2,.06-3.67H356.31c.05,1.68.09,3.38.07,3.67-.19,2.65-.91,4.6-3.41,5.68-5.35,2.32-12.89,5.39-14.8,11.58a15.27,15.27,0,0,0-.67,4.81h48.26A14.71,14.71,0,0,0,385.09,142.17Z" style="fill:#263238"></path><rect x="360.91" y="69.92" width="1.44" height="52.3" style="fill:#263238"></rect><path d="M153.94,142.17c-1.9-6.19-9.44-9.26-14.79-11.58-2.51-1.08-3.23-3-3.41-5.68,0-.29,0-2,.06-3.67H125.16c0,1.68.09,3.38.07,3.67-.19,2.65-.91,4.6-3.41,5.68-5.35,2.32-12.89,5.39-14.8,11.58a15.27,15.27,0,0,0-.67,4.81h48.26A14.71,14.71,0,0,0,153.94,142.17Z" style="fill:#263238"></path><rect x="129.76" y="69.92" width="1.44" height="52.3" style="fill:#263238"></rect></g><g id="freepik--Table--inject-20"><rect x="186.72" y="295.78" width="30.57" height="1.51" style="fill:#fff;stroke:#263238;stroke-linecap:round;stroke-linejoin:round"></rect><polygon points="231.15 228.97 234.85 234.88 229.76 278.87 225.79 278.41 231.15 228.97" style="fill:#263238;stroke:#263238;stroke-linecap:round;stroke-linejoin:round"></polygon><rect x="226.05" y="222.53" width="2.9" height="56.99" transform="translate(30.41 -24.52) rotate(6.61)" style="fill:#fff;stroke:#263238;stroke-linecap:round;stroke-linejoin:round"></rect><polygon points="231.22 266.25 229.57 295.29 220.13 295.29 220.13 297.54 229.57 297.54 231.75 297.54 231.75 295.29 233.38 266.5 231.22 266.25" style="fill:#fff;stroke:#263238;stroke-linecap:round;stroke-linejoin:round"></polygon><rect x="285.42" y="295.78" width="30.57" height="1.51" transform="translate(601.41 593.07) rotate(180)" style="fill:#fff;stroke:#263238;stroke-linecap:round;stroke-linejoin:round"></rect><polygon points="271.55 228.97 267.85 234.88 272.95 278.87 276.92 278.41 271.55 228.97" style="fill:#263238;stroke:#263238;stroke-linecap:round;stroke-linejoin:round"></polygon><rect x="273.75" y="222.53" width="2.9" height="56.99" transform="translate(577.48 468.7) rotate(173.39)" style="fill:#fff;stroke:#263238;stroke-linecap:round;stroke-linejoin:round"></rect><polygon points="271.49 266.25 273.14 295.29 282.57 295.29 282.57 297.54 273.14 297.54 270.96 297.54 270.96 295.29 269.33 266.5 271.49 266.25" style="fill:#fff;stroke:#263238;stroke-linecap:round;stroke-linejoin:round"></polygon><polyline points="190.58 299.06 249.76 394.83 319.46 299.06" style="fill:none;stroke:#263238;stroke-linecap:round;stroke-linejoin:round;stroke-width:3px"></polyline><rect x="182.19" y="297.27" width="145.66" height="3.02" style="fill:#fff;stroke:#263238;stroke-linecap:round;stroke-linejoin:round"></rect><rect x="242.12" y="244.73" width="15.24" height="158.95" style="fill:#263238;stroke:#263238;stroke-linecap:round;stroke-linejoin:round"></rect><rect x="206.29" y="318.5" width="3.97" height="26.19" style="fill:#fff;stroke:#263238;stroke-linecap:round;stroke-linejoin:round"></rect><rect x="206.29" y="348.21" width="3.97" height="26.19" style="fill:#fff;stroke:#263238;stroke-linecap:round;stroke-linejoin:round"></rect><rect x="206.29" y="377.93" width="3.97" height="26.19" style="fill:#fff;stroke:#263238;stroke-linecap:round;stroke-linejoin:round"></rect><rect x="208.61" y="314.62" width="83.02" height="93.21" style="fill:#263238;stroke:#263238;stroke-linecap:round;stroke-linejoin:round"></rect></g><g id="freepik--Floor--inject-20"><line x1="48.71" y1="407.83" x2="468" y2="407.83" style="fill:none;stroke:#263238;stroke-linecap:round;stroke-linejoin:round"></line></g></svg>