<svg xmlns="http://www.w3.org/2000/svg" xmlns:xlink="http://www.w3.org/1999/xlink" viewBox="0 0 500 500"><defs><clipPath id="freepik--clip-path--inject-256"><path d="M314.16,418.67V386H215.78v32.7a46.71,46.71,0,0,1-10.45,29.4L201,453.4h127.9l-4.31-5.33A46.77,46.77,0,0,1,314.16,418.67Z" style="fill:#fff;stroke:#263238;stroke-linecap:round;stroke-linejoin:round"></path></clipPath></defs><g id="freepik--background-simple--inject-256"><path d="M288.85,42.69S206,29.46,137.92,87.58,47.5,240.15,27.42,316.21,39.54,459.9,103.78,481.55s94.95-33.51,176.2-51S385.35,420.71,444.57,362s51.28-169.93-17.13-240.65S288.85,42.69,288.85,42.69Z" style="fill:#4C489E"></path><path d="M288.85,42.69S206,29.46,137.92,87.58,47.5,240.15,27.42,316.21,39.54,459.9,103.78,481.55s94.95-33.51,176.2-51S385.35,420.71,444.57,362s51.28-169.93-17.13-240.65S288.85,42.69,288.85,42.69Z" style="fill:#fff;opacity:0.7000000000000001"></path></g><g id="freepik--Plant--inject-256"><path d="M114.55,63s0-8.62-12.06-20.68S82.67,23.35,82.67,23.35s-6,19.81,5.17,31.87,26.71,23.26,26.71,23.26Z" style="fill:#4C489E"></path><path d="M97,116.78S97,108.16,85,96.1,65.17,77.15,65.17,77.15,59.14,97,70.34,109,97,132.29,97,132.29Z" style="fill:#4C489E"></path><path d="M113.79,77.65s.91-8.57,14.18-19.28,21.7-16.76,21.7-16.76,3.91,20.34-8.5,31.15-29,20.31-29,20.31Z" style="fill:#4C489E"></path><path d="M92.65,141.19s1.8-8.42,16.12-17.69,23.35-14.38,23.35-14.38,1.74,20.64-11.74,30.08-31,17.15-31,17.15Z" style="fill:#4C489E"></path><path d="M96.62,210.47s0-8.62,12.06-20.68,19.81-18.95,19.81-18.95,6,19.81-5.16,31.87S96.62,226,96.62,226Z" style="fill:#4C489E"></path><path d="M96.42,227.37s1.22-8.52-9-22.18S70.5,183.62,70.5,183.62s-8.79,18.75.59,32.28,23.13,26.82,23.13,26.82Z" style="fill:#4C489E"></path><path d="M84.53,277.49s0-8.62,12.06-20.68,19.81-18.95,19.81-18.95,6,19.81-5.17,31.87S84.53,293,84.53,293Z" style="fill:#4C489E"></path><path d="M92.58,322.92S90.4,314.59,99,299.87s14.37-23.36,14.37-23.36,10.85,17.64,3.07,32.15-19.94,29.26-19.94,29.26Z" style="fill:#4C489E"></path><path d="M115.64,60.77a244.73,244.73,0,0,1-3.3,26.75c-4.77,24.63-16.69,40.52-21.46,62.77s8.92,50.91,5.26,79.49-14.79,44.47-11.61,63.54S104.39,364,104.39,364" style="fill:none;stroke:#263238;stroke-linecap:round;stroke-linejoin:round"></path><line x1="113.67" y1="83.38" x2="126.67" y2="73.4" style="fill:none;stroke:#263238;stroke-linecap:round;stroke-linejoin:round"></line><line x1="114.28" y1="71.89" x2="108.84" y2="62.22" style="fill:none;stroke:#263238;stroke-linecap:round;stroke-linejoin:round"></line><path d="M91.61,149.27s10.88-8.16,22.06-16.32" style="fill:none;stroke:#263238;stroke-linecap:round;stroke-linejoin:round"></path><path d="M97,132.29S88,114.51,77.7,102.72" style="fill:none;stroke:#263238;stroke-linecap:round;stroke-linejoin:round"></path><path d="M97.05,222.72a134.63,134.63,0,0,1,23.27-31.13" style="fill:none;stroke:#263238;stroke-linecap:round;stroke-linejoin:round"></path><path d="M94.93,234.81s-5.44-13-11.79-22.37-7.25-10.58-7.25-10.58" style="fill:none;stroke:#263238;stroke-linecap:round;stroke-linejoin:round"></path><path d="M84.53,293.32a145,145,0,0,1,9.8-19.82A127.21,127.21,0,0,1,107,256.88" style="fill:none;stroke:#263238;stroke-linecap:round;stroke-linejoin:round"></path><path d="M96.51,337.92s-1.28-10.31,3.26-19.08,9.67-20.25,11.79-24.79" style="fill:none;stroke:#263238;stroke-linecap:round;stroke-linejoin:round"></path><path d="M35.57,178.07s-.93-5.41,5.32-14.28,10.37-14,10.37-14,5.93,11.77.22,20.54a135.3,135.3,0,0,1-14.23,17.49Z" style="fill:#4C489E"></path><path d="M52.39,209.9s-.94-5.4,5.32-14.27,10.36-14,10.36-14,5.94,11.77.22,20.55a134.73,134.73,0,0,1-14.22,17.49Z" style="fill:#4C489E"></path><path d="M37.64,187.18s-1.5-5.27-11-10.55-15.42-8.15-15.42-8.15-.24,13.18,8.71,18.61a135.47,135.47,0,0,0,20.4,9.59Z" style="fill:#4C489E"></path><path d="M57.8,224.73s-2-5.08-12-9.34-16.2-6.48-16.2-6.48S30.71,222,40.19,226.5a134.72,134.72,0,0,0,21.29,7.39Z" style="fill:#4C489E"></path><path d="M62.82,268.61S61.89,263.2,53,257s-14.49-9.73-14.49-9.73-1.63,13.08,6.71,19.42a134.66,134.66,0,0,0,19.27,11.69Z" style="fill:#4C489E"></path><path d="M64.79,279.19S63.09,274,68,264.3s8.27-15.36,8.27-15.36,7.54,10.8,3.14,20.31a134.52,134.52,0,0,1-11.6,19.32Z" style="fill:#4C489E"></path><path d="M79.92,322.76s.63-5.44,9.13-12.19S103,300,103,300s2.38,13-5.58,19.78A134.9,134.9,0,0,1,78.8,332.57Z" style="fill:#4C489E"></path><path d="M77.68,309.32s-.93-5.4-9.8-11.65-14.49-9.74-14.49-9.74S51.76,301,60.1,307.36a134.66,134.66,0,0,0,19.27,11.69Z" style="fill:#4C489E"></path><path d="M77.57,338.69S78,333.22,71,324.93s-11.54-13.09-11.54-13.09-4.9,12.24,1.56,20.49a134.94,134.94,0,0,0,15.68,16.19Z" style="fill:#4C489E"></path><path d="M34.65,176.8a156.65,156.65,0,0,0,5,16.42c5.66,14.92,14.86,23.6,20.27,37s-.07,32.89,5.33,50.42S79.32,307,79.4,319.25s-4.78,46.5-4.78,46.5" style="fill:none;stroke:#263238;stroke-linecap:round;stroke-linejoin:round"></path><line x1="38.34" y1="190.76" x2="29.1" y2="185.92" style="fill:none;stroke:#263238;stroke-linecap:round;stroke-linejoin:round"></line><line x1="36.71" y1="183.63" x2="39.07" y2="176.97" style="fill:none;stroke:#263238;stroke-linecap:round;stroke-linejoin:round"></line><path d="M59.33,229.69s-7.71-3.94-15.61-7.84" style="fill:none;stroke:#263238;stroke-linecap:round;stroke-linejoin:round"></path><path d="M54.07,219.63S57.83,207.5,63,199" style="fill:none;stroke:#263238;stroke-linecap:round;stroke-linejoin:round"></path><path d="M63.89,276.34a85.53,85.53,0,0,0-18-17" style="fill:none;stroke:#263238;stroke-linecap:round;stroke-linejoin:round"></path><path d="M66.53,283.69a97.16,97.16,0,0,1,5-15.31c3-6.56,3.4-7.42,3.4-7.42" style="fill:none;stroke:#263238;stroke-linecap:round;stroke-linejoin:round"></path><path d="M79,328.58s6.12-7.5,9.93-10.31a52.66,52.66,0,0,0,6.45-5.6" style="fill:none;stroke:#263238;stroke-linecap:round;stroke-linejoin:round"></path><path d="M79.4,319.25a91.61,91.61,0,0,0-8.29-11.36,81,81,0,0,0-9.77-9.05" style="fill:none;stroke:#263238;stroke-linecap:round;stroke-linejoin:round"></path><path d="M76.73,348.52s-.32-6.61-4.11-11.61-8.27-11.65-10.09-14.26" style="fill:none;stroke:#263238;stroke-linecap:round;stroke-linejoin:round"></path><path d="M112.21,447.76H61.87a4,4,0,0,1-4-4L45.42,360.43h83.24l-12.49,83.36A4,4,0,0,1,112.21,447.76Z" style="fill:#263238;stroke:#263238;stroke-linecap:round;stroke-linejoin:round"></path></g><g id="freepik--Table--inject-256"><line x1="19" y1="439.35" x2="477" y2="439.35" style="fill:none;stroke:#263238;stroke-linecap:round;stroke-linejoin:round"></line></g><g id="freepik--Graphics--inject-256"><rect x="336" y="38.35" width="14" height="14" transform="translate(68.4 255.82) rotate(-45)" style="fill:none;stroke:#263238;stroke-linecap:round;stroke-linejoin:round"></rect><rect x="456.1" y="164.35" width="14" height="14" transform="translate(14.48 377.65) rotate(-45)" style="fill:none;stroke:#263238;stroke-linecap:round;stroke-linejoin:round"></rect><rect x="153.1" y="404.35" width="14" height="14" transform="translate(-243.98 233.69) rotate(-45)" style="fill:none;stroke:#263238;stroke-linecap:round;stroke-linejoin:round"></rect><rect x="283.18" y="86.13" width="7.64" height="7.64" transform="translate(20.46 229.29) rotate(-45)" style="fill:none;stroke:#263238;stroke-linecap:round;stroke-linejoin:round"></rect><circle cx="179" cy="74.35" r="4" style="fill:none;stroke:#263238;stroke-linecap:round;stroke-linejoin:round"></circle><circle cx="477" cy="291.35" r="4" style="fill:none;stroke:#263238;stroke-linecap:round;stroke-linejoin:round"></circle><circle cx="393" cy="89.35" r="4" style="fill:none;stroke:#263238;stroke-linecap:round;stroke-linejoin:round"></circle><circle cx="40" cy="109.35" r="4" style="fill:none;stroke:#263238;stroke-linecap:round;stroke-linejoin:round"></circle></g><g id="freepik--Device--inject-256"><rect x="67.27" y="105.95" width="395.4" height="290.33" rx="8.48" style="fill:#263238;stroke:#263238;stroke-linecap:round;stroke-linejoin:round"></rect><path d="M314.16,418.67V386H215.78v32.7a46.71,46.71,0,0,1-10.45,29.4L201,453.4h127.9l-4.31-5.33A46.77,46.77,0,0,1,314.16,418.67Z" style="fill:#fff"></path><g style="clip-path:url(#freepik--clip-path--inject-256)"><path d="M209.74,407.1H320.2a46.64,46.64,0,0,1-6-22.9V351.5H215.78v32.7A46.53,46.53,0,0,1,209.74,407.1Z" style="fill:#263238"></path></g><path d="M314.16,418.67V386H215.78v32.7a46.71,46.71,0,0,1-10.45,29.4L201,453.4h127.9l-4.31-5.33A46.77,46.77,0,0,1,314.16,418.67Z" style="fill:none;stroke:#263238;stroke-linecap:round;stroke-linejoin:round"></path><rect x="201.02" y="453.4" width="127.92" height="5.84" style="fill:#263238;stroke:#263238;stroke-linecap:round;stroke-linejoin:round"></rect><path d="M67.27,351.15h395.4a0,0,0,0,1,0,0V387.8a8.48,8.48,0,0,1-8.48,8.48H75.75a8.48,8.48,0,0,1-8.48-8.48V351.15a0,0,0,0,1,0,0Z" style="fill:#fff;stroke:#263238;stroke-linecap:round;stroke-linejoin:round"></path></g></svg>